<svg xmlns="http://www.w3.org/2000/svg" xmlns:xlink="http://www.w3.org/1999/xlink" width="500" zoomAndPan="magnify" viewBox="0 0 375 187.499995" height="250" preserveAspectRatio="xMidYMid meet" version="1.0"><defs><g/><clipPath id="f1e5142b0d"><path d="M 0.5 0 L 374.5 0 L 374.5 187 L 0.5 187 Z M 0.5 0 " clip-rule="nonzero"/></clipPath><clipPath id="df8462e0fd"><rect x="0" width="143" y="0" height="108"/></clipPath><clipPath id="5feba40d7b"><rect x="0" width="225" y="0" height="21"/></clipPath><clipPath id="8be2b85793"><path d="M 0.566406 15 L 45 15 L 45 70 L 0.566406 70 Z M 0.566406 15 " clip-rule="nonzero"/></clipPath><clipPath id="749ccc95c6"><rect x="0" width="49" y="0" height="86"/></clipPath><clipPath id="53f7b1ac81"><path d="M 0.00390625 15 L 43 15 L 43 70 L 0.00390625 70 Z M 0.00390625 15 " clip-rule="nonzero"/></clipPath><clipPath id="1e2e1e7e5c"><rect x="0" width="47" y="0" height="86"/></clipPath><clipPath id="05b4a316e4"><rect x="0" width="54" y="0" height="86"/></clipPath><clipPath id="3710c32ac6"><rect x="0" width="100" y="0" height="78"/></clipPath><clipPath id="041daf72b6"><rect x="0" width="100" y="0" height="78"/></clipPath><clipPath id="8703fd164e"><rect x="0" width="100" y="0" height="78"/></clipPath></defs><g clip-path="url(#f1e5142b0d)"><path fill="#ffffff" d="M 0.5 0 L 374.5 0 L 374.5 187 L 0.5 187 Z M 0.5 0 " fill-opacity="1" fill-rule="nonzero"/><path fill="#ffffff" d="M 0.5 0 L 374.5 0 L 374.5 187 L 0.5 187 Z M 0.5 0 " fill-opacity="1" fill-rule="nonzero"/></g><g transform="matrix(1, 0, 0, 1, 42, 73)"><g clip-path="url(#df8462e0fd)"><g fill="#000000" fill-opacity="1"><g transform="translate(0.151652, 72.705776)"><g><path d="M 36.140625 -13.765625 C 36.140625 -12.171875 36.421875 -10.785156 36.984375 -9.609375 C 37.546875 -8.429688 38.300781 -7.441406 39.25 -6.640625 C 40.195312 -5.847656 41.269531 -5.257812 42.46875 -4.875 C 43.675781 -4.5 44.898438 -4.3125 46.140625 -4.3125 C 47.367188 -4.3125 48.582031 -4.5 49.78125 -4.875 C 50.988281 -5.257812 52.066406 -5.847656 53.015625 -6.640625 C 53.960938 -7.441406 54.71875 -8.429688 55.28125 -9.609375 C 55.84375 -10.785156 56.125 -12.171875 56.125 -13.765625 L 56.125 -55.359375 L 61.515625 -55.359375 L 61.515625 -13.765625 C 61.515625 -11.453125 61.085938 -9.398438 60.234375 -7.609375 C 59.390625 -5.816406 58.265625 -4.316406 56.859375 -3.109375 C 55.453125 -1.910156 53.847656 -1.003906 52.046875 -0.390625 C 50.253906 0.222656 48.4375 0.53125 46.59375 0.53125 C 43.925781 0.53125 41.390625 -0.109375 38.984375 -1.390625 C 36.578125 -2.671875 34.734375 -4.664062 33.453125 -7.375 C 32.171875 -4.664062 30.320312 -2.671875 27.90625 -1.390625 C 25.5 -0.109375 22.960938 0.53125 20.296875 0.53125 C 18.453125 0.53125 16.632812 0.222656 14.84375 -0.390625 C 13.050781 -1.003906 11.445312 -1.910156 10.03125 -3.109375 C 8.625 -4.316406 7.492188 -5.816406 6.640625 -7.609375 C 5.796875 -9.398438 5.375 -11.453125 5.375 -13.765625 L 5.375 -55.359375 L 10.765625 -55.359375 L 10.765625 -13.765625 C 10.765625 -12.171875 11.046875 -10.785156 11.609375 -9.609375 C 12.171875 -8.429688 12.925781 -7.441406 13.875 -6.640625 C 14.820312 -5.847656 15.898438 -5.257812 17.109375 -4.875 C 18.316406 -4.5 19.535156 -4.3125 20.765625 -4.3125 C 21.992188 -4.3125 23.207031 -4.5 24.40625 -4.875 C 25.613281 -5.257812 26.691406 -5.847656 27.640625 -6.640625 C 28.585938 -7.441406 29.34375 -8.429688 29.90625 -9.609375 C 30.46875 -10.785156 30.75 -12.171875 30.75 -13.765625 L 30.75 -55.359375 L 36.140625 -55.359375 Z M 36.140625 -13.765625 "/></g></g></g><g fill="#000000" fill-opacity="1"><g transform="translate(67.050839, 72.705776)"><g><path d="M 33.375 -7.296875 C 32.707031 -5.972656 31.859375 -4.820312 30.828125 -3.84375 C 29.804688 -2.875 28.679688 -2.054688 27.453125 -1.390625 C 26.222656 -0.722656 24.914062 -0.238281 23.53125 0.0625 C 22.144531 0.375 20.757812 0.53125 19.375 0.53125 C 17.425781 0.53125 15.53125 0.222656 13.6875 -0.390625 C 11.84375 -1.003906 10.1875 -1.953125 8.71875 -3.234375 C 7.257812 -4.515625 6.082031 -6.101562 5.1875 -8 C 4.289062 -9.894531 3.84375 -12.097656 3.84375 -14.609375 L 3.84375 -23.0625 C 3.84375 -25.726562 4.273438 -28.046875 5.140625 -30.015625 C 6.015625 -31.992188 7.15625 -33.648438 8.5625 -34.984375 C 9.976562 -36.316406 11.582031 -37.316406 13.375 -37.984375 C 15.164062 -38.648438 17.015625 -38.984375 18.921875 -38.984375 C 20.816406 -38.984375 22.671875 -38.648438 24.484375 -37.984375 C 26.304688 -37.316406 27.921875 -36.316406 29.328125 -34.984375 C 30.742188 -33.648438 31.882812 -31.992188 32.75 -30.015625 C 33.625 -28.046875 34.0625 -25.726562 34.0625 -23.0625 C 34.0625 -20.65625 33.457031 -18.925781 32.25 -17.875 C 31.050781 -16.820312 29.375 -16.296875 27.21875 -16.296875 L 9.234375 -16.296875 L 9.234375 -14.609375 C 9.234375 -12.921875 9.523438 -11.421875 10.109375 -10.109375 C 10.703125 -8.804688 11.472656 -7.726562 12.421875 -6.875 C 13.367188 -6.03125 14.441406 -5.390625 15.640625 -4.953125 C 16.847656 -4.523438 18.09375 -4.3125 19.375 -4.3125 C 21.320312 -4.3125 23.164062 -4.804688 24.90625 -5.796875 C 26.65625 -6.796875 27.9375 -8.296875 28.75 -10.296875 Z M 9.234375 -21.140625 L 26.828125 -21.140625 C 28.066406 -21.140625 28.6875 -21.78125 28.6875 -23.0625 C 28.6875 -24.90625 28.398438 -26.519531 27.828125 -27.90625 C 27.265625 -29.289062 26.519531 -30.441406 25.59375 -31.359375 C 24.675781 -32.285156 23.640625 -32.976562 22.484375 -33.4375 C 21.335938 -33.90625 20.148438 -34.140625 18.921875 -34.140625 C 17.679688 -34.140625 16.484375 -33.90625 15.328125 -33.4375 C 14.179688 -32.976562 13.160156 -32.285156 12.265625 -31.359375 C 11.367188 -30.441406 10.640625 -29.289062 10.078125 -27.90625 C 9.515625 -26.519531 9.234375 -24.90625 9.234375 -23.0625 Z M 9.234375 -21.140625 "/></g></g></g><g fill="#000000" fill-opacity="1"><g transform="translate(104.191421, 72.705776)"><g><path d="M 9.921875 0 L 5 0 L 5 -57.671875 L 10.375 -57.671875 L 10.375 -33.90625 C 11.863281 -35.695312 13.515625 -36.988281 15.328125 -37.78125 C 17.148438 -38.582031 18.988281 -38.984375 20.84375 -38.984375 C 22.476562 -38.984375 24.078125 -38.660156 25.640625 -38.015625 C 27.203125 -37.378906 28.570312 -36.429688 29.75 -35.171875 C 30.9375 -33.921875 31.882812 -32.394531 32.59375 -30.59375 C 33.3125 -28.800781 33.671875 -26.753906 33.671875 -24.453125 L 33.671875 -14 C 33.671875 -11.6875 33.3125 -9.632812 32.59375 -7.84375 C 31.882812 -6.050781 30.9375 -4.523438 29.75 -3.265625 C 28.570312 -2.015625 27.203125 -1.066406 25.640625 -0.421875 C 24.078125 0.210938 22.476562 0.53125 20.84375 0.53125 C 18.988281 0.53125 17.148438 0.132812 15.328125 -0.65625 C 13.515625 -1.445312 11.863281 -2.738281 10.375 -4.53125 Z M 10.375 -14.6875 C 10.375 -13 10.644531 -11.5 11.1875 -10.1875 C 11.726562 -8.882812 12.429688 -7.796875 13.296875 -6.921875 C 14.171875 -6.046875 15.171875 -5.390625 16.296875 -4.953125 C 17.429688 -4.523438 18.5625 -4.3125 19.6875 -4.3125 C 20.757812 -4.3125 21.820312 -4.5 22.875 -4.875 C 23.925781 -5.257812 24.847656 -5.863281 25.640625 -6.6875 C 26.429688 -7.507812 27.070312 -8.519531 27.5625 -9.71875 C 28.050781 -10.925781 28.296875 -12.351562 28.296875 -14 L 28.296875 -24.453125 C 28.296875 -26.085938 28.050781 -27.507812 27.5625 -28.71875 C 27.070312 -29.925781 26.429688 -30.9375 25.640625 -31.75 C 24.847656 -32.570312 23.925781 -33.175781 22.875 -33.5625 C 21.820312 -33.945312 20.757812 -34.140625 19.6875 -34.140625 C 18.5625 -34.140625 17.429688 -33.921875 16.296875 -33.484375 C 15.171875 -33.046875 14.171875 -32.390625 13.296875 -31.515625 C 12.429688 -30.648438 11.726562 -29.5625 11.1875 -28.25 C 10.644531 -26.945312 10.375 -25.453125 10.375 -23.765625 Z M 10.375 -14.6875 "/></g></g></g></g></g><g transform="matrix(1, 0, 0, 1, 75, 157)"><g clip-path="url(#5feba40d7b)"><g fill="#000000" fill-opacity="1"><g transform="translate(0.931664, 13.458079)"><g><path d="M 1.78125 0 C 1.539062 0 1.351562 -0.0703125 1.21875 -0.21875 C 1.082031 -0.363281 1.015625 -0.550781 1.015625 -0.78125 L 1.015625 -9.609375 C 1.015625 -9.835938 1.082031 -10.023438 1.21875 -10.171875 C 1.351562 -10.316406 1.539062 -10.390625 1.78125 -10.390625 L 7.40625 -10.390625 L 7.40625 -9.46875 L 2.015625 -9.46875 L 2.015625 -5.640625 L 7 -5.640625 L 7 -4.734375 L 2.015625 -4.734375 L 2.015625 -0.90625 L 7.640625 -0.90625 L 7.640625 0 Z M 1.78125 0 "/></g></g></g><g fill="#000000" fill-opacity="1"><g transform="translate(8.934124, 13.458079)"><g><path d="M 8.21875 0 L 7.21875 0 L 7.21875 -3.84375 L 2.015625 -3.84375 L 2.015625 0 L 1.015625 0 L 1.015625 -6.984375 C 1.015625 -7.566406 1.113281 -8.078125 1.3125 -8.515625 C 1.519531 -8.953125 1.789062 -9.316406 2.125 -9.609375 C 2.46875 -9.898438 2.851562 -10.117188 3.28125 -10.265625 C 3.71875 -10.410156 4.160156 -10.484375 4.609375 -10.484375 C 5.066406 -10.484375 5.507812 -10.410156 5.9375 -10.265625 C 6.375 -10.117188 6.757812 -9.898438 7.09375 -9.609375 C 7.425781 -9.316406 7.695312 -8.953125 7.90625 -8.515625 C 8.113281 -8.078125 8.21875 -7.566406 8.21875 -6.984375 Z M 7.21875 -6.984375 C 7.21875 -7.410156 7.140625 -7.785156 6.984375 -8.109375 C 6.835938 -8.441406 6.640625 -8.71875 6.390625 -8.9375 C 6.148438 -9.15625 5.875 -9.316406 5.5625 -9.421875 C 5.257812 -9.523438 4.941406 -9.578125 4.609375 -9.578125 C 4.285156 -9.578125 3.96875 -9.523438 3.65625 -9.421875 C 3.351562 -9.316406 3.078125 -9.15625 2.828125 -8.9375 C 2.585938 -8.71875 2.390625 -8.441406 2.234375 -8.109375 C 2.085938 -7.785156 2.015625 -7.410156 2.015625 -6.984375 L 2.015625 -4.75 L 7.21875 -4.75 Z M 7.21875 -6.984375 "/></g></g></g><g fill="#000000" fill-opacity="1"><g transform="translate(18.162183, 13.458079)"><g><path d="M 0.734375 -1.65625 C 0.929688 -1.5625 1.160156 -1.460938 1.421875 -1.359375 C 1.691406 -1.265625 1.976562 -1.175781 2.28125 -1.09375 C 2.582031 -1.019531 2.894531 -0.957031 3.21875 -0.90625 C 3.539062 -0.863281 3.859375 -0.84375 4.171875 -0.84375 C 4.492188 -0.84375 4.800781 -0.875 5.09375 -0.9375 C 5.382812 -1 5.640625 -1.101562 5.859375 -1.25 C 6.078125 -1.394531 6.25 -1.59375 6.375 -1.84375 C 6.507812 -2.101562 6.578125 -2.421875 6.578125 -2.796875 C 6.578125 -3.148438 6.5 -3.441406 6.34375 -3.671875 C 6.195312 -3.910156 6 -4.101562 5.75 -4.25 C 5.507812 -4.394531 5.226562 -4.519531 4.90625 -4.625 C 4.59375 -4.726562 4.269531 -4.828125 3.9375 -4.921875 C 3.5625 -5.023438 3.191406 -5.140625 2.828125 -5.265625 C 2.460938 -5.390625 2.132812 -5.554688 1.84375 -5.765625 C 1.550781 -5.984375 1.316406 -6.257812 1.140625 -6.59375 C 0.960938 -6.925781 0.875 -7.351562 0.875 -7.875 C 0.875 -8.363281 0.960938 -8.773438 1.140625 -9.109375 C 1.316406 -9.453125 1.550781 -9.722656 1.84375 -9.921875 C 2.144531 -10.117188 2.492188 -10.257812 2.890625 -10.34375 C 3.285156 -10.4375 3.707031 -10.484375 4.15625 -10.484375 C 4.707031 -10.484375 5.25 -10.4375 5.78125 -10.34375 C 6.320312 -10.25 6.789062 -10.140625 7.1875 -10.015625 L 7 -9.09375 C 6.84375 -9.15625 6.65625 -9.210938 6.4375 -9.265625 C 6.226562 -9.316406 6 -9.363281 5.75 -9.40625 C 5.507812 -9.445312 5.253906 -9.476562 4.984375 -9.5 C 4.722656 -9.53125 4.457031 -9.546875 4.1875 -9.546875 C 3.851562 -9.546875 3.546875 -9.519531 3.265625 -9.46875 C 2.992188 -9.414062 2.753906 -9.320312 2.546875 -9.1875 C 2.335938 -9.0625 2.175781 -8.890625 2.0625 -8.671875 C 1.945312 -8.453125 1.890625 -8.1875 1.890625 -7.875 C 1.890625 -7.5625 1.953125 -7.296875 2.078125 -7.078125 C 2.203125 -6.859375 2.367188 -6.671875 2.578125 -6.515625 C 2.796875 -6.367188 3.046875 -6.25 3.328125 -6.15625 C 3.609375 -6.0625 3.90625 -5.976562 4.21875 -5.90625 C 4.601562 -5.800781 4.992188 -5.6875 5.390625 -5.5625 C 5.796875 -5.4375 6.160156 -5.265625 6.484375 -5.046875 C 6.816406 -4.835938 7.082031 -4.550781 7.28125 -4.1875 C 7.488281 -3.832031 7.59375 -3.375 7.59375 -2.8125 C 7.59375 -2.257812 7.5 -1.796875 7.3125 -1.421875 C 7.125 -1.054688 6.867188 -0.757812 6.546875 -0.53125 C 6.234375 -0.3125 5.867188 -0.148438 5.453125 -0.046875 C 5.035156 0.046875 4.601562 0.09375 4.15625 0.09375 C 3.507812 0.09375 2.867188 0.015625 2.234375 -0.140625 C 1.597656 -0.296875 1.035156 -0.488281 0.546875 -0.71875 Z M 0.734375 -1.65625 "/></g></g></g><g fill="#000000" fill-opacity="1"><g transform="translate(26.236738, 13.458079)"><g><path d="M 8.359375 -7.859375 C 8.359375 -7.296875 8.257812 -6.796875 8.0625 -6.359375 C 7.875 -5.921875 7.617188 -5.546875 7.296875 -5.234375 C 6.984375 -4.929688 6.617188 -4.691406 6.203125 -4.515625 C 5.785156 -4.335938 5.351562 -4.226562 4.90625 -4.1875 L 4.90625 0 L 3.890625 0 L 3.890625 -4.1875 C 3.441406 -4.226562 3.007812 -4.335938 2.59375 -4.515625 C 2.175781 -4.691406 1.804688 -4.929688 1.484375 -5.234375 C 1.171875 -5.546875 0.914062 -5.921875 0.71875 -6.359375 C 0.53125 -6.796875 0.4375 -7.296875 0.4375 -7.859375 L 0.4375 -10.390625 L 1.4375 -10.390625 L 1.4375 -7.859375 C 1.4375 -7.390625 1.519531 -6.976562 1.6875 -6.625 C 1.863281 -6.269531 2.085938 -5.976562 2.359375 -5.75 C 2.640625 -5.519531 2.957031 -5.347656 3.3125 -5.234375 C 3.664062 -5.117188 4.03125 -5.0625 4.40625 -5.0625 C 4.769531 -5.0625 5.128906 -5.117188 5.484375 -5.234375 C 5.835938 -5.347656 6.148438 -5.519531 6.421875 -5.75 C 6.703125 -5.976562 6.925781 -6.269531 7.09375 -6.625 C 7.269531 -6.976562 7.359375 -7.390625 7.359375 -7.859375 L 7.359375 -10.390625 L 8.359375 -10.390625 Z M 8.359375 -7.859375 "/></g></g></g><g fill="#000000" fill-opacity="1"><g transform="translate(35.032237, 13.458079)"><g/></g></g><g fill="#000000" fill-opacity="1"><g transform="translate(39.646266, 13.458079)"><g><path d="M 7.1875 -9.46875 L 4.25 -9.46875 L 4.25 0 L 3.25 0 L 3.25 -9.46875 L 0.3125 -9.46875 L 0.3125 -10.390625 L 7.1875 -10.390625 Z M 7.1875 -9.46875 "/></g></g></g><g fill="#000000" fill-opacity="1"><g transform="translate(47.14407, 13.458079)"><g><path d="M 0.859375 -6.65625 C 0.859375 -7.289062 0.96875 -7.847656 1.1875 -8.328125 C 1.414062 -8.816406 1.707031 -9.21875 2.0625 -9.53125 C 2.425781 -9.851562 2.84375 -10.09375 3.3125 -10.25 C 3.78125 -10.40625 4.253906 -10.484375 4.734375 -10.484375 C 5.210938 -10.484375 5.679688 -10.40625 6.140625 -10.25 C 6.609375 -10.09375 7.023438 -9.851562 7.390625 -9.53125 C 7.765625 -9.21875 8.0625 -8.816406 8.28125 -8.328125 C 8.5 -7.847656 8.609375 -7.289062 8.609375 -6.65625 L 8.609375 -3.71875 C 8.609375 -3.082031 8.5 -2.523438 8.28125 -2.046875 C 8.0625 -1.566406 7.765625 -1.164062 7.390625 -0.84375 C 7.023438 -0.53125 6.609375 -0.296875 6.140625 -0.140625 C 5.679688 0.015625 5.210938 0.09375 4.734375 0.09375 C 4.253906 0.09375 3.78125 0.015625 3.3125 -0.140625 C 2.84375 -0.296875 2.425781 -0.53125 2.0625 -0.84375 C 1.707031 -1.164062 1.414062 -1.566406 1.1875 -2.046875 C 0.96875 -2.523438 0.859375 -3.082031 0.859375 -3.71875 Z M 7.59375 -6.65625 C 7.59375 -7.15625 7.507812 -7.582031 7.34375 -7.9375 C 7.1875 -8.300781 6.972656 -8.601562 6.703125 -8.84375 C 6.429688 -9.09375 6.125 -9.273438 5.78125 -9.390625 C 5.4375 -9.515625 5.085938 -9.578125 4.734375 -9.578125 C 4.378906 -9.578125 4.03125 -9.515625 3.6875 -9.390625 C 3.34375 -9.273438 3.035156 -9.09375 2.765625 -8.84375 C 2.492188 -8.601562 2.273438 -8.300781 2.109375 -7.9375 C 1.953125 -7.582031 1.875 -7.15625 1.875 -6.65625 L 1.875 -3.71875 C 1.875 -3.226562 1.953125 -2.800781 2.109375 -2.4375 C 2.273438 -2.082031 2.492188 -1.78125 2.765625 -1.53125 C 3.035156 -1.289062 3.34375 -1.109375 3.6875 -0.984375 C 4.03125 -0.867188 4.378906 -0.8125 4.734375 -0.8125 C 5.085938 -0.8125 5.4375 -0.867188 5.78125 -0.984375 C 6.125 -1.109375 6.429688 -1.289062 6.703125 -1.53125 C 6.972656 -1.78125 7.1875 -2.082031 7.34375 -2.4375 C 7.507812 -2.800781 7.59375 -3.226562 7.59375 -3.71875 Z M 7.59375 -6.65625 "/></g></g></g><g fill="#000000" fill-opacity="1"><g transform="translate(56.617251, 13.458079)"><g/></g></g><g fill="#000000" fill-opacity="1"><g transform="translate(61.231281, 13.458079)"><g><path d="M 5.53125 0.09375 C 5.382812 0.09375 5.242188 0.0546875 5.109375 -0.015625 C 4.984375 -0.0859375 4.894531 -0.207031 4.84375 -0.375 L 2.015625 -9.1875 L 2.015625 0 L 1.015625 0 L 1.015625 -9.5625 C 1.015625 -9.863281 1.109375 -10.09375 1.296875 -10.25 C 1.492188 -10.40625 1.707031 -10.484375 1.9375 -10.484375 C 2.15625 -10.484375 2.351562 -10.425781 2.53125 -10.3125 C 2.707031 -10.195312 2.832031 -10.023438 2.90625 -9.796875 L 5.53125 -1.234375 L 8.140625 -9.796875 C 8.210938 -10.023438 8.335938 -10.195312 8.515625 -10.3125 C 8.691406 -10.425781 8.890625 -10.484375 9.109375 -10.484375 C 9.335938 -10.484375 9.546875 -10.40625 9.734375 -10.25 C 9.929688 -10.09375 10.03125 -9.863281 10.03125 -9.5625 L 10.03125 0 L 9.03125 0 L 9.03125 -9.1875 L 6.203125 -0.375 C 6.148438 -0.207031 6.054688 -0.0859375 5.921875 -0.015625 C 5.796875 0.0546875 5.664062 0.09375 5.53125 0.09375 Z M 5.53125 0.09375 "/></g></g></g><g fill="#000000" fill-opacity="1"><g transform="translate(72.276116, 13.458079)"><g><path d="M 8.21875 0 L 7.21875 0 L 7.21875 -3.84375 L 2.015625 -3.84375 L 2.015625 0 L 1.015625 0 L 1.015625 -6.984375 C 1.015625 -7.566406 1.113281 -8.078125 1.3125 -8.515625 C 1.519531 -8.953125 1.789062 -9.316406 2.125 -9.609375 C 2.46875 -9.898438 2.851562 -10.117188 3.28125 -10.265625 C 3.71875 -10.410156 4.160156 -10.484375 4.609375 -10.484375 C 5.066406 -10.484375 5.507812 -10.410156 5.9375 -10.265625 C 6.375 -10.117188 6.757812 -9.898438 7.09375 -9.609375 C 7.425781 -9.316406 7.695312 -8.953125 7.90625 -8.515625 C 8.113281 -8.078125 8.21875 -7.566406 8.21875 -6.984375 Z M 7.21875 -6.984375 C 7.21875 -7.410156 7.140625 -7.785156 6.984375 -8.109375 C 6.835938 -8.441406 6.640625 -8.71875 6.390625 -8.9375 C 6.148438 -9.15625 5.875 -9.316406 5.5625 -9.421875 C 5.257812 -9.523438 4.941406 -9.578125 4.609375 -9.578125 C 4.285156 -9.578125 3.96875 -9.523438 3.65625 -9.421875 C 3.351562 -9.316406 3.078125 -9.15625 2.828125 -8.9375 C 2.585938 -8.71875 2.390625 -8.441406 2.234375 -8.109375 C 2.085938 -7.785156 2.015625 -7.410156 2.015625 -6.984375 L 2.015625 -4.75 L 7.21875 -4.75 Z M 7.21875 -6.984375 "/></g></g></g><g fill="#000000" fill-opacity="1"><g transform="translate(81.504176, 13.458079)"><g><path d="M 7.765625 -10.390625 C 7.765625 -9.410156 7.613281 -8.539062 7.3125 -7.78125 C 7.019531 -7.03125 6.585938 -6.40625 6.015625 -5.90625 C 6.660156 -5.675781 7.1875 -5.304688 7.59375 -4.796875 C 8.007812 -4.285156 8.21875 -3.625 8.21875 -2.8125 L 8.21875 0 L 7.21875 0 L 7.21875 -2.8125 C 7.21875 -3.144531 7.160156 -3.441406 7.046875 -3.703125 C 6.929688 -3.960938 6.773438 -4.191406 6.578125 -4.390625 C 6.390625 -4.597656 6.171875 -4.773438 5.921875 -4.921875 C 5.671875 -5.066406 5.40625 -5.1875 5.125 -5.28125 C 4.257812 -4.8125 3.222656 -4.578125 2.015625 -4.578125 L 2.015625 0 L 1.015625 0 L 1.015625 -10.390625 L 2.015625 -10.390625 L 2.015625 -5.484375 C 3.609375 -5.484375 4.796875 -5.894531 5.578125 -6.71875 C 6.359375 -7.550781 6.75 -8.773438 6.75 -10.390625 Z M 7.765625 -10.390625 "/></g></g></g><g fill="#000000" fill-opacity="1"><g transform="translate(90.544783, 13.458079)"><g><path d="M 1.78125 0 C 1.539062 0 1.351562 -0.0703125 1.21875 -0.21875 C 1.082031 -0.363281 1.015625 -0.550781 1.015625 -0.78125 L 1.015625 -9.609375 C 1.015625 -9.835938 1.082031 -10.023438 1.21875 -10.171875 C 1.351562 -10.316406 1.539062 -10.390625 1.78125 -10.390625 L 7.40625 -10.390625 L 7.40625 -9.46875 L 2.015625 -9.46875 L 2.015625 -5.640625 L 7 -5.640625 L 7 -4.734375 L 2.015625 -4.734375 L 2.015625 -0.90625 L 7.640625 -0.90625 L 7.640625 0 Z M 1.78125 0 "/></g></g></g><g fill="#000000" fill-opacity="1"><g transform="translate(98.547243, 13.458079)"><g/></g></g><g fill="#000000" fill-opacity="1"><g transform="translate(103.161272, 13.458079)"><g><path d="M 1.78125 0 C 1.539062 0 1.351562 -0.0703125 1.21875 -0.21875 C 1.082031 -0.363281 1.015625 -0.550781 1.015625 -0.78125 L 1.015625 -9.609375 C 1.015625 -9.835938 1.082031 -10.023438 1.21875 -10.171875 C 1.351562 -10.316406 1.539062 -10.390625 1.78125 -10.390625 L 7.40625 -10.390625 L 7.40625 -9.46875 L 2.015625 -9.46875 L 2.015625 -5.640625 L 7 -5.640625 L 7 -4.734375 L 2.015625 -4.734375 L 2.015625 -0.90625 L 7.640625 -0.90625 L 7.640625 0 Z M 1.78125 0 "/></g></g></g><g fill="#000000" fill-opacity="1"><g transform="translate(111.163732, 13.458079)"><g><path d="M 8.21875 0 L 7.21875 0 L 7.21875 -3.84375 L 2.015625 -3.84375 L 2.015625 0 L 1.015625 0 L 1.015625 -6.984375 C 1.015625 -7.566406 1.113281 -8.078125 1.3125 -8.515625 C 1.519531 -8.953125 1.789062 -9.316406 2.125 -9.609375 C 2.46875 -9.898438 2.851562 -10.117188 3.28125 -10.265625 C 3.71875 -10.410156 4.160156 -10.484375 4.609375 -10.484375 C 5.066406 -10.484375 5.507812 -10.410156 5.9375 -10.265625 C 6.375 -10.117188 6.757812 -9.898438 7.09375 -9.609375 C 7.425781 -9.316406 7.695312 -8.953125 7.90625 -8.515625 C 8.113281 -8.078125 8.21875 -7.566406 8.21875 -6.984375 Z M 7.21875 -6.984375 C 7.21875 -7.410156 7.140625 -7.785156 6.984375 -8.109375 C 6.835938 -8.441406 6.640625 -8.71875 6.390625 -8.9375 C 6.148438 -9.15625 5.875 -9.316406 5.5625 -9.421875 C 5.257812 -9.523438 4.941406 -9.578125 4.609375 -9.578125 C 4.285156 -9.578125 3.96875 -9.523438 3.65625 -9.421875 C 3.351562 -9.316406 3.078125 -9.15625 2.828125 -8.9375 C 2.585938 -8.71875 2.390625 -8.441406 2.234375 -8.109375 C 2.085938 -7.785156 2.015625 -7.410156 2.015625 -6.984375 L 2.015625 -4.75 L 7.21875 -4.75 Z M 7.21875 -6.984375 "/></g></g></g><g fill="#000000" fill-opacity="1"><g transform="translate(120.391791, 13.458079)"><g><path d="M 0.734375 -1.65625 C 0.929688 -1.5625 1.160156 -1.460938 1.421875 -1.359375 C 1.691406 -1.265625 1.976562 -1.175781 2.28125 -1.09375 C 2.582031 -1.019531 2.894531 -0.957031 3.21875 -0.90625 C 3.539062 -0.863281 3.859375 -0.84375 4.171875 -0.84375 C 4.492188 -0.84375 4.800781 -0.875 5.09375 -0.9375 C 5.382812 -1 5.640625 -1.101562 5.859375 -1.25 C 6.078125 -1.394531 6.25 -1.59375 6.375 -1.84375 C 6.507812 -2.101562 6.578125 -2.421875 6.578125 -2.796875 C 6.578125 -3.148438 6.5 -3.441406 6.34375 -3.671875 C 6.195312 -3.910156 6 -4.101562 5.75 -4.25 C 5.507812 -4.394531 5.226562 -4.519531 4.90625 -4.625 C 4.59375 -4.726562 4.269531 -4.828125 3.9375 -4.921875 C 3.5625 -5.023438 3.191406 -5.140625 2.828125 -5.265625 C 2.460938 -5.390625 2.132812 -5.554688 1.84375 -5.765625 C 1.550781 -5.984375 1.316406 -6.257812 1.140625 -6.59375 C 0.960938 -6.925781 0.875 -7.351562 0.875 -7.875 C 0.875 -8.363281 0.960938 -8.773438 1.140625 -9.109375 C 1.316406 -9.453125 1.550781 -9.722656 1.84375 -9.921875 C 2.144531 -10.117188 2.492188 -10.257812 2.890625 -10.34375 C 3.285156 -10.4375 3.707031 -10.484375 4.15625 -10.484375 C 4.707031 -10.484375 5.25 -10.4375 5.78125 -10.34375 C 6.320312 -10.25 6.789062 -10.140625 7.1875 -10.015625 L 7 -9.09375 C 6.84375 -9.15625 6.65625 -9.210938 6.4375 -9.265625 C 6.226562 -9.316406 6 -9.363281 5.75 -9.40625 C 5.507812 -9.445312 5.253906 -9.476562 4.984375 -9.5 C 4.722656 -9.53125 4.457031 -9.546875 4.1875 -9.546875 C 3.851562 -9.546875 3.546875 -9.519531 3.265625 -9.46875 C 2.992188 -9.414062 2.753906 -9.320312 2.546875 -9.1875 C 2.335938 -9.0625 2.175781 -8.890625 2.0625 -8.671875 C 1.945312 -8.453125 1.890625 -8.1875 1.890625 -7.875 C 1.890625 -7.5625 1.953125 -7.296875 2.078125 -7.078125 C 2.203125 -6.859375 2.367188 -6.671875 2.578125 -6.515625 C 2.796875 -6.367188 3.046875 -6.25 3.328125 -6.15625 C 3.609375 -6.0625 3.90625 -5.976562 4.21875 -5.90625 C 4.601562 -5.800781 4.992188 -5.6875 5.390625 -5.5625 C 5.796875 -5.4375 6.160156 -5.265625 6.484375 -5.046875 C 6.816406 -4.835938 7.082031 -4.550781 7.28125 -4.1875 C 7.488281 -3.832031 7.59375 -3.375 7.59375 -2.8125 C 7.59375 -2.257812 7.5 -1.796875 7.3125 -1.421875 C 7.125 -1.054688 6.867188 -0.757812 6.546875 -0.53125 C 6.234375 -0.3125 5.867188 -0.148438 5.453125 -0.046875 C 5.035156 0.046875 4.601562 0.09375 4.15625 0.09375 C 3.507812 0.09375 2.867188 0.015625 2.234375 -0.140625 C 1.597656 -0.296875 1.035156 -0.488281 0.546875 -0.71875 Z M 0.734375 -1.65625 "/></g></g></g><g fill="#000000" fill-opacity="1"><g transform="translate(128.466346, 13.458079)"><g><path d="M 8.359375 -7.859375 C 8.359375 -7.296875 8.257812 -6.796875 8.0625 -6.359375 C 7.875 -5.921875 7.617188 -5.546875 7.296875 -5.234375 C 6.984375 -4.929688 6.617188 -4.691406 6.203125 -4.515625 C 5.785156 -4.335938 5.351562 -4.226562 4.90625 -4.1875 L 4.90625 0 L 3.890625 0 L 3.890625 -4.1875 C 3.441406 -4.226562 3.007812 -4.335938 2.59375 -4.515625 C 2.175781 -4.691406 1.804688 -4.929688 1.484375 -5.234375 C 1.171875 -5.546875 0.914062 -5.921875 0.71875 -6.359375 C 0.53125 -6.796875 0.4375 -7.296875 0.4375 -7.859375 L 0.4375 -10.390625 L 1.4375 -10.390625 L 1.4375 -7.859375 C 1.4375 -7.390625 1.519531 -6.976562 1.6875 -6.625 C 1.863281 -6.269531 2.085938 -5.976562 2.359375 -5.75 C 2.640625 -5.519531 2.957031 -5.347656 3.3125 -5.234375 C 3.664062 -5.117188 4.03125 -5.0625 4.40625 -5.0625 C 4.769531 -5.0625 5.128906 -5.117188 5.484375 -5.234375 C 5.835938 -5.347656 6.148438 -5.519531 6.421875 -5.75 C 6.703125 -5.976562 6.925781 -6.269531 7.09375 -6.625 C 7.269531 -6.976562 7.359375 -7.390625 7.359375 -7.859375 L 7.359375 -10.390625 L 8.359375 -10.390625 Z M 8.359375 -7.859375 "/></g></g></g><g fill="#000000" fill-opacity="1"><g transform="translate(137.261845, 13.458079)"><g/></g></g><g fill="#000000" fill-opacity="1"><g transform="translate(141.875874, 13.458079)"><g><path d="M 7.1875 -9.46875 L 4.25 -9.46875 L 4.25 0 L 3.25 0 L 3.25 -9.46875 L 0.3125 -9.46875 L 0.3125 -10.390625 L 7.1875 -10.390625 Z M 7.1875 -9.46875 "/></g></g></g><g fill="#000000" fill-opacity="1"><g transform="translate(149.373678, 13.458079)"><g><path d="M 0.859375 -6.65625 C 0.859375 -7.289062 0.96875 -7.847656 1.1875 -8.328125 C 1.414062 -8.816406 1.707031 -9.21875 2.0625 -9.53125 C 2.425781 -9.851562 2.84375 -10.09375 3.3125 -10.25 C 3.78125 -10.40625 4.253906 -10.484375 4.734375 -10.484375 C 5.210938 -10.484375 5.679688 -10.40625 6.140625 -10.25 C 6.609375 -10.09375 7.023438 -9.851562 7.390625 -9.53125 C 7.765625 -9.21875 8.0625 -8.816406 8.28125 -8.328125 C 8.5 -7.847656 8.609375 -7.289062 8.609375 -6.65625 L 8.609375 -3.71875 C 8.609375 -3.082031 8.5 -2.523438 8.28125 -2.046875 C 8.0625 -1.566406 7.765625 -1.164062 7.390625 -0.84375 C 7.023438 -0.53125 6.609375 -0.296875 6.140625 -0.140625 C 5.679688 0.015625 5.210938 0.09375 4.734375 0.09375 C 4.253906 0.09375 3.78125 0.015625 3.3125 -0.140625 C 2.84375 -0.296875 2.425781 -0.53125 2.0625 -0.84375 C 1.707031 -1.164062 1.414062 -1.566406 1.1875 -2.046875 C 0.96875 -2.523438 0.859375 -3.082031 0.859375 -3.71875 Z M 7.59375 -6.65625 C 7.59375 -7.15625 7.507812 -7.582031 7.34375 -7.9375 C 7.1875 -8.300781 6.972656 -8.601562 6.703125 -8.84375 C 6.429688 -9.09375 6.125 -9.273438 5.78125 -9.390625 C 5.4375 -9.515625 5.085938 -9.578125 4.734375 -9.578125 C 4.378906 -9.578125 4.03125 -9.515625 3.6875 -9.390625 C 3.34375 -9.273438 3.035156 -9.09375 2.765625 -8.84375 C 2.492188 -8.601562 2.273438 -8.300781 2.109375 -7.9375 C 1.953125 -7.582031 1.875 -7.15625 1.875 -6.65625 L 1.875 -3.71875 C 1.875 -3.226562 1.953125 -2.800781 2.109375 -2.4375 C 2.273438 -2.082031 2.492188 -1.78125 2.765625 -1.53125 C 3.035156 -1.289062 3.34375 -1.109375 3.6875 -0.984375 C 4.03125 -0.867188 4.378906 -0.8125 4.734375 -0.8125 C 5.085938 -0.8125 5.4375 -0.867188 5.78125 -0.984375 C 6.125 -1.109375 6.429688 -1.289062 6.703125 -1.53125 C 6.972656 -1.78125 7.1875 -2.082031 7.34375 -2.4375 C 7.507812 -2.800781 7.59375 -3.226562 7.59375 -3.71875 Z M 7.59375 -6.65625 "/></g></g></g><g fill="#000000" fill-opacity="1"><g transform="translate(158.846859, 13.458079)"><g/></g></g><g fill="#000000" fill-opacity="1"><g transform="translate(163.460889, 13.458079)"><g><path d="M 0.734375 -1.65625 C 0.929688 -1.5625 1.160156 -1.460938 1.421875 -1.359375 C 1.691406 -1.265625 1.976562 -1.175781 2.28125 -1.09375 C 2.582031 -1.019531 2.894531 -0.957031 3.21875 -0.90625 C 3.539062 -0.863281 3.859375 -0.84375 4.171875 -0.84375 C 4.492188 -0.84375 4.800781 -0.875 5.09375 -0.9375 C 5.382812 -1 5.640625 -1.101562 5.859375 -1.25 C 6.078125 -1.394531 6.25 -1.59375 6.375 -1.84375 C 6.507812 -2.101562 6.578125 -2.421875 6.578125 -2.796875 C 6.578125 -3.148438 6.5 -3.441406 6.34375 -3.671875 C 6.195312 -3.910156 6 -4.101562 5.75 -4.25 C 5.507812 -4.394531 5.226562 -4.519531 4.90625 -4.625 C 4.59375 -4.726562 4.269531 -4.828125 3.9375 -4.921875 C 3.5625 -5.023438 3.191406 -5.140625 2.828125 -5.265625 C 2.460938 -5.390625 2.132812 -5.554688 1.84375 -5.765625 C 1.550781 -5.984375 1.316406 -6.257812 1.140625 -6.59375 C 0.960938 -6.925781 0.875 -7.351562 0.875 -7.875 C 0.875 -8.363281 0.960938 -8.773438 1.140625 -9.109375 C 1.316406 -9.453125 1.550781 -9.722656 1.84375 -9.921875 C 2.144531 -10.117188 2.492188 -10.257812 2.890625 -10.34375 C 3.285156 -10.4375 3.707031 -10.484375 4.15625 -10.484375 C 4.707031 -10.484375 5.25 -10.4375 5.78125 -10.34375 C 6.320312 -10.25 6.789062 -10.140625 7.1875 -10.015625 L 7 -9.09375 C 6.84375 -9.15625 6.65625 -9.210938 6.4375 -9.265625 C 6.226562 -9.316406 6 -9.363281 5.75 -9.40625 C 5.507812 -9.445312 5.253906 -9.476562 4.984375 -9.5 C 4.722656 -9.53125 4.457031 -9.546875 4.1875 -9.546875 C 3.851562 -9.546875 3.546875 -9.519531 3.265625 -9.46875 C 2.992188 -9.414062 2.753906 -9.320312 2.546875 -9.1875 C 2.335938 -9.0625 2.175781 -8.890625 2.0625 -8.671875 C 1.945312 -8.453125 1.890625 -8.1875 1.890625 -7.875 C 1.890625 -7.5625 1.953125 -7.296875 2.078125 -7.078125 C 2.203125 -6.859375 2.367188 -6.671875 2.578125 -6.515625 C 2.796875 -6.367188 3.046875 -6.25 3.328125 -6.15625 C 3.609375 -6.0625 3.90625 -5.976562 4.21875 -5.90625 C 4.601562 -5.800781 4.992188 -5.6875 5.390625 -5.5625 C 5.796875 -5.4375 6.160156 -5.265625 6.484375 -5.046875 C 6.816406 -4.835938 7.082031 -4.550781 7.28125 -4.1875 C 7.488281 -3.832031 7.59375 -3.375 7.59375 -2.8125 C 7.59375 -2.257812 7.5 -1.796875 7.3125 -1.421875 C 7.125 -1.054688 6.867188 -0.757812 6.546875 -0.53125 C 6.234375 -0.3125 5.867188 -0.148438 5.453125 -0.046875 C 5.035156 0.046875 4.601562 0.09375 4.15625 0.09375 C 3.507812 0.09375 2.867188 0.015625 2.234375 -0.140625 C 1.597656 -0.296875 1.035156 -0.488281 0.546875 -0.71875 Z M 0.734375 -1.65625 "/></g></g></g><g fill="#000000" fill-opacity="1"><g transform="translate(171.535444, 13.458079)"><g><path d="M 2.015625 -10.390625 L 2.015625 -3.453125 C 2.015625 -3.003906 2.09375 -2.613281 2.25 -2.28125 C 2.414062 -1.957031 2.628906 -1.6875 2.890625 -1.46875 C 3.148438 -1.25 3.445312 -1.082031 3.78125 -0.96875 C 4.125 -0.863281 4.472656 -0.8125 4.828125 -0.8125 C 5.171875 -0.8125 5.507812 -0.863281 5.84375 -0.96875 C 6.1875 -1.082031 6.488281 -1.25 6.75 -1.46875 C 7.019531 -1.6875 7.234375 -1.957031 7.390625 -2.28125 C 7.554688 -2.613281 7.640625 -3.003906 7.640625 -3.453125 L 7.640625 -10.390625 L 8.65625 -10.390625 L 8.65625 -3.453125 C 8.65625 -2.847656 8.539062 -2.320312 8.3125 -1.875 C 8.09375 -1.4375 7.804688 -1.066406 7.453125 -0.765625 C 7.097656 -0.472656 6.691406 -0.253906 6.234375 -0.109375 C 5.773438 0.0234375 5.304688 0.09375 4.828125 0.09375 C 4.347656 0.09375 3.878906 0.0234375 3.421875 -0.109375 C 2.960938 -0.253906 2.550781 -0.472656 2.1875 -0.765625 C 1.832031 -1.066406 1.546875 -1.4375 1.328125 -1.875 C 1.117188 -2.320312 1.015625 -2.847656 1.015625 -3.453125 L 1.015625 -10.390625 Z M 2.015625 -10.390625 "/></g></g></g><g fill="#000000" fill-opacity="1"><g transform="translate(181.196064, 13.458079)"><g><path d="M 1.015625 -9.609375 C 1.015625 -9.835938 1.082031 -10.023438 1.21875 -10.171875 C 1.351562 -10.316406 1.539062 -10.390625 1.78125 -10.390625 L 5.046875 -10.390625 C 5.554688 -10.390625 6 -10.300781 6.375 -10.125 C 6.757812 -9.945312 7.078125 -9.710938 7.328125 -9.421875 C 7.585938 -9.140625 7.78125 -8.816406 7.90625 -8.453125 C 8.039062 -8.085938 8.109375 -7.71875 8.109375 -7.34375 C 8.109375 -6.96875 8.039062 -6.597656 7.90625 -6.234375 C 7.78125 -5.867188 7.585938 -5.539062 7.328125 -5.25 C 7.078125 -4.96875 6.757812 -4.738281 6.375 -4.5625 C 6 -4.394531 5.554688 -4.3125 5.046875 -4.3125 L 2.015625 -4.3125 L 2.015625 0 L 1.015625 0 Z M 5.046875 -5.21875 C 5.378906 -5.21875 5.671875 -5.273438 5.921875 -5.390625 C 6.179688 -5.515625 6.398438 -5.675781 6.578125 -5.875 C 6.753906 -6.070312 6.882812 -6.296875 6.96875 -6.546875 C 7.050781 -6.804688 7.09375 -7.070312 7.09375 -7.34375 C 7.09375 -7.613281 7.050781 -7.875 6.96875 -8.125 C 6.882812 -8.382812 6.753906 -8.613281 6.578125 -8.8125 C 6.398438 -9.007812 6.179688 -9.164062 5.921875 -9.28125 C 5.671875 -9.40625 5.378906 -9.46875 5.046875 -9.46875 L 2.015625 -9.46875 L 2.015625 -5.21875 Z M 5.046875 -5.21875 "/></g></g></g><g fill="#000000" fill-opacity="1"><g transform="translate(189.775275, 13.458079)"><g><path d="M 1.015625 -9.609375 C 1.015625 -9.835938 1.082031 -10.023438 1.21875 -10.171875 C 1.351562 -10.316406 1.539062 -10.390625 1.78125 -10.390625 L 5.046875 -10.390625 C 5.554688 -10.390625 6 -10.300781 6.375 -10.125 C 6.757812 -9.945312 7.078125 -9.710938 7.328125 -9.421875 C 7.585938 -9.140625 7.78125 -8.816406 7.90625 -8.453125 C 8.039062 -8.085938 8.109375 -7.71875 8.109375 -7.34375 C 8.109375 -6.96875 8.039062 -6.597656 7.90625 -6.234375 C 7.78125 -5.867188 7.585938 -5.539062 7.328125 -5.25 C 7.078125 -4.96875 6.757812 -4.738281 6.375 -4.5625 C 6 -4.394531 5.554688 -4.3125 5.046875 -4.3125 L 2.015625 -4.3125 L 2.015625 0 L 1.015625 0 Z M 5.046875 -5.21875 C 5.378906 -5.21875 5.671875 -5.273438 5.921875 -5.390625 C 6.179688 -5.515625 6.398438 -5.675781 6.578125 -5.875 C 6.753906 -6.070312 6.882812 -6.296875 6.96875 -6.546875 C 7.050781 -6.804688 7.09375 -7.070312 7.09375 -7.34375 C 7.09375 -7.613281 7.050781 -7.875 6.96875 -8.125 C 6.882812 -8.382812 6.753906 -8.613281 6.578125 -8.8125 C 6.398438 -9.007812 6.179688 -9.164062 5.921875 -9.28125 C 5.671875 -9.40625 5.378906 -9.46875 5.046875 -9.46875 L 2.015625 -9.46875 L 2.015625 -5.21875 Z M 5.046875 -5.21875 "/></g></g></g><g fill="#000000" fill-opacity="1"><g transform="translate(198.354487, 13.458079)"><g><path d="M 0.859375 -6.65625 C 0.859375 -7.289062 0.96875 -7.847656 1.1875 -8.328125 C 1.414062 -8.816406 1.707031 -9.21875 2.0625 -9.53125 C 2.425781 -9.851562 2.84375 -10.09375 3.3125 -10.25 C 3.78125 -10.40625 4.253906 -10.484375 4.734375 -10.484375 C 5.210938 -10.484375 5.679688 -10.40625 6.140625 -10.25 C 6.609375 -10.09375 7.023438 -9.851562 7.390625 -9.53125 C 7.765625 -9.21875 8.0625 -8.816406 8.28125 -8.328125 C 8.5 -7.847656 8.609375 -7.289062 8.609375 -6.65625 L 8.609375 -3.71875 C 8.609375 -3.082031 8.5 -2.523438 8.28125 -2.046875 C 8.0625 -1.566406 7.765625 -1.164062 7.390625 -0.84375 C 7.023438 -0.53125 6.609375 -0.296875 6.140625 -0.140625 C 5.679688 0.015625 5.210938 0.09375 4.734375 0.09375 C 4.253906 0.09375 3.78125 0.015625 3.3125 -0.140625 C 2.84375 -0.296875 2.425781 -0.53125 2.0625 -0.84375 C 1.707031 -1.164062 1.414062 -1.566406 1.1875 -2.046875 C 0.96875 -2.523438 0.859375 -3.082031 0.859375 -3.71875 Z M 7.59375 -6.65625 C 7.59375 -7.15625 7.507812 -7.582031 7.34375 -7.9375 C 7.1875 -8.300781 6.972656 -8.601562 6.703125 -8.84375 C 6.429688 -9.09375 6.125 -9.273438 5.78125 -9.390625 C 5.4375 -9.515625 5.085938 -9.578125 4.734375 -9.578125 C 4.378906 -9.578125 4.03125 -9.515625 3.6875 -9.390625 C 3.34375 -9.273438 3.035156 -9.09375 2.765625 -8.84375 C 2.492188 -8.601562 2.273438 -8.300781 2.109375 -7.9375 C 1.953125 -7.582031 1.875 -7.15625 1.875 -6.65625 L 1.875 -3.71875 C 1.875 -3.226562 1.953125 -2.800781 2.109375 -2.4375 C 2.273438 -2.082031 2.492188 -1.78125 2.765625 -1.53125 C 3.035156 -1.289062 3.34375 -1.109375 3.6875 -0.984375 C 4.03125 -0.867188 4.378906 -0.8125 4.734375 -0.8125 C 5.085938 -0.8125 5.4375 -0.867188 5.78125 -0.984375 C 6.125 -1.109375 6.429688 -1.289062 6.703125 -1.53125 C 6.972656 -1.78125 7.1875 -2.082031 7.34375 -2.4375 C 7.507812 -2.800781 7.59375 -3.226562 7.59375 -3.71875 Z M 7.59375 -6.65625 "/></g></g></g><g fill="#000000" fill-opacity="1"><g transform="translate(207.827669, 13.458079)"><g><path d="M 2.015625 -4.703125 L 2.015625 0 L 1.015625 0 L 1.015625 -9.609375 C 1.015625 -9.835938 1.082031 -10.023438 1.21875 -10.171875 C 1.351562 -10.316406 1.539062 -10.390625 1.78125 -10.390625 L 4.921875 -10.390625 C 5.390625 -10.390625 5.800781 -10.304688 6.15625 -10.140625 C 6.519531 -9.972656 6.820312 -9.753906 7.0625 -9.484375 C 7.300781 -9.210938 7.476562 -8.90625 7.59375 -8.5625 C 7.71875 -8.226562 7.78125 -7.890625 7.78125 -7.546875 C 7.78125 -7.054688 7.664062 -6.585938 7.4375 -6.140625 C 7.21875 -5.691406 6.882812 -5.335938 6.4375 -5.078125 C 6.957031 -4.785156 7.347656 -4.394531 7.609375 -3.90625 C 7.867188 -3.414062 8 -2.765625 8 -1.953125 L 8 0 L 7 0 L 7 -1.921875 C 7 -2.847656 6.753906 -3.539062 6.265625 -4 C 5.785156 -4.46875 5.15625 -4.703125 4.375 -4.703125 Z M 4.921875 -5.609375 C 5.222656 -5.609375 5.488281 -5.660156 5.71875 -5.765625 C 5.957031 -5.878906 6.15625 -6.023438 6.3125 -6.203125 C 6.46875 -6.390625 6.585938 -6.597656 6.671875 -6.828125 C 6.753906 -7.066406 6.796875 -7.304688 6.796875 -7.546875 C 6.796875 -7.785156 6.753906 -8.019531 6.671875 -8.25 C 6.585938 -8.476562 6.46875 -8.679688 6.3125 -8.859375 C 6.15625 -9.046875 5.957031 -9.191406 5.71875 -9.296875 C 5.488281 -9.410156 5.222656 -9.46875 4.921875 -9.46875 L 2.015625 -9.46875 L 2.015625 -5.609375 Z M 4.921875 -5.609375 "/></g></g></g><g fill="#000000" fill-opacity="1"><g transform="translate(216.551071, 13.458079)"><g><path d="M 7.1875 -9.46875 L 4.25 -9.46875 L 4.25 0 L 3.25 0 L 3.25 -9.46875 L 0.3125 -9.46875 L 0.3125 -10.390625 L 7.1875 -10.390625 Z M 7.1875 -9.46875 "/></g></g></g></g></g><g transform="matrix(1, 0, 0, 1, 184, 78)"><g clip-path="url(#749ccc95c6)"><g clip-path="url(#8be2b85793)"><g fill="#0081cc" fill-opacity="1"><g transform="translate(0.710517, 69.507981)"><g><path d="M 13.8125 -12.203125 C 16.113281 -10.878906 18.304688 -10.09375 20.390625 -9.84375 L 21.46875 -9.65625 L 21.40625 0 C 14.863281 0.175781 9.851562 -1.160156 6.375 -4.015625 C 2.5 -6.515625 0.425781 -10.867188 0.15625 -17.078125 L 11.453125 -18.171875 C 11.648438 -15.546875 12.4375 -13.609375 13.8125 -12.359375 Z M 17.875 -22.984375 C 7.0625 -24.929688 1.65625 -29.945312 1.65625 -38.03125 L 1.65625 -38.75 C 1.65625 -47.175781 7.109375 -52.144531 18.015625 -53.65625 L 21.40625 -53.71875 L 21.46875 -44.75 C 19.019531 -44.550781 17.320312 -44.253906 16.375 -43.859375 C 14.394531 -43.097656 13.429688 -41.394531 13.484375 -38.75 C 13.484375 -36.269531 16.625 -34.453125 22.90625 -33.296875 C 24.476562 -33.023438 25.765625 -32.765625 26.765625 -32.515625 C 37.898438 -30.660156 43.46875 -25.351562 43.46875 -16.59375 L 43.46875 -15.84375 C 43.46875 -6.851562 38.015625 -1.5625 27.109375 0.03125 L 23.421875 0.15625 L 23.421875 -9.34375 C 26.023438 -9.625 27.804688 -9.976562 28.765625 -10.40625 C 30.734375 -11.195312 31.695312 -13.007812 31.65625 -15.84375 C 31.65625 -18.5 28.550781 -20.550781 22.34375 -22 C 20.9375 -22.425781 19.394531 -22.789062 17.71875 -23.09375 Z M 23.234375 -53.84375 C 28.617188 -53.84375 33.363281 -52.328125 37.46875 -49.296875 C 39.875 -47.296875 41.625 -43.59375 42.71875 -38.1875 L 42.71875 -37.65625 L 36.5625 -36.90625 L 31.46875 -36.5625 C 30.988281 -39.519531 30.132812 -41.460938 28.90625 -42.390625 C 27.90625 -43.234375 26.03125 -44.019531 23.28125 -44.75 Z M 23.234375 -53.84375 "/></g></g></g></g></g></g><g transform="matrix(1, 0, 0, 1, 231, 78)"><g clip-path="url(#1e2e1e7e5c)"><g clip-path="url(#53f7b1ac81)"><g fill="#004aad" fill-opacity="1"><g transform="translate(0.181966, 69.507981)"><g><path d="M 12.234375 0 L 0 0 L 0 -53.953125 L 12.234375 -53.953125 Z M 29.734375 -37.625 C 28.878906 -41.820312 26.578125 -43.960938 22.828125 -44.046875 L 14.1875 -44.15625 L 14.1875 -54.09375 L 22.828125 -54.09375 C 30.054688 -54.09375 35.300781 -52.054688 38.5625 -47.984375 C 40.863281 -44.472656 42.015625 -40.816406 42.015625 -37.015625 L 42.015625 -17.125 C 42.015625 -13.3125 40.863281 -9.65625 38.5625 -6.15625 C 35.300781 -2.070312 30.054688 -0.03125 22.828125 -0.03125 L 14.1875 -0.03125 L 14.1875 -9.984375 L 22.828125 -10.09375 C 26.578125 -10.175781 28.878906 -12.316406 29.734375 -16.515625 Z M 29.734375 -37.625 "/></g></g></g></g></g></g><g transform="matrix(1, 0, 0, 1, 276, 78)"><g clip-path="url(#05b4a316e4)"><g fill="#000000" fill-opacity="1"><g transform="translate(1.269069, 69.507981)"><g><path d="M 12.390625 -53.84375 L 12.390625 0 L -0.03125 0 L -0.03125 -53.84375 Z M 31.09375 -53.84375 L 46.75 -53.84375 L 46.75 -53.65625 L 22.296875 -29.390625 L 47.875 -0.1875 L 47.875 0 L 33.1875 0 L 14.078125 -22.34375 L 14.078125 -35.703125 Z M 31.09375 -53.84375 "/></g></g></g></g></g><g transform="matrix(1, 0, 0, 1, 128, 18)"><g clip-path="url(#3710c32ac6)"><g fill="#0081cc" fill-opacity="1"><g transform="translate(4.078983, 57.177195)"><g><path d="M -2 -53.984375 L 94.109375 -53.984375 L 60.203125 3.453125 C 56.972656 -2.023438 53.753906 -7.40625 50.546875 -12.6875 C 47.347656 -17.96875 44.160156 -23.320312 40.984375 -28.75 L 39.296875 -27.140625 L 44.75 -17.921875 L 31.90625 3.453125 Z M -2 -53.984375 "/></g></g></g></g></g><g transform="matrix(1, 0, 0, 1, 135, 18)"><g clip-path="url(#041daf72b6)"><g fill="#004aad" fill-opacity="1"><g transform="translate(4.029, 57.18231)"><g><path d="M -2 -53.984375 L 94.109375 -53.984375 L 60.203125 3.453125 C 56.972656 -2.023438 53.753906 -7.40625 50.546875 -12.6875 C 47.347656 -17.96875 44.160156 -23.320312 40.984375 -28.75 L 39.296875 -27.140625 L 44.75 -17.921875 L 31.90625 3.453125 Z M -2 -53.984375 "/></g></g></g></g></g><g transform="matrix(1, 0, 0, 1, 142, 18)"><g clip-path="url(#8703fd164e)"><g fill="#000000" fill-opacity="1"><g transform="translate(4.220282, 57.18231)"><g><path d="M -2 -53.984375 L 94.109375 -53.984375 L 60.203125 3.453125 C 56.972656 -2.023438 53.753906 -7.40625 50.546875 -12.6875 C 47.347656 -17.96875 44.160156 -23.320312 40.984375 -28.75 L 39.296875 -27.140625 L 44.75 -17.921875 L 31.90625 3.453125 Z M -2 -53.984375 "/></g></g></g></g></g></svg>
