<svg xmlns="http://www.w3.org/2000/svg" xmlns:xlink="http://www.w3.org/1999/xlink" width="500" zoomAndPan="magnify" viewBox="0 0 375 374.999991" height="500" preserveAspectRatio="xMidYMid meet" version="1.0"><defs><g/><clipPath id="eddf078f53"><path d="M 187.5 0 C 83.945312 0 0 83.945312 0 187.5 C 0 291.054688 83.945312 375 187.5 375 C 291.054688 375 375 291.054688 375 187.5 C 375 83.945312 291.054688 0 187.5 0 Z M 187.5 0 " clip-rule="nonzero"/></clipPath><clipPath id="136aea26fa"><path d="M 0 0 L 375 0 L 375 375 L 0 375 Z M 0 0 " clip-rule="nonzero"/></clipPath><clipPath id="08faff178f"><path d="M 187.5 0 C 83.945312 0 0 83.945312 0 187.5 C 0 291.054688 83.945312 375 187.5 375 C 291.054688 375 375 291.054688 375 187.5 C 375 83.945312 291.054688 0 187.5 0 Z M 187.5 0 " clip-rule="nonzero"/></clipPath><clipPath id="bb97067cf3"><rect x="0" width="375" y="0" height="375"/></clipPath><clipPath id="0c9174a37b"><rect x="0" width="274" y="0" height="214"/></clipPath><clipPath id="302de6ce44"><rect x="0" width="274" y="0" height="214"/></clipPath><clipPath id="8cf3fe0533"><rect x="0" width="274" y="0" height="214"/></clipPath></defs><g clip-path="url(#eddf078f53)"><g transform="matrix(1, 0, 0, 1, 0, 0)"><g clip-path="url(#bb97067cf3)"><g clip-path="url(#136aea26fa)"><g clip-path="url(#08faff178f)"><rect x="-82.5" width="540" fill="#ffffff" height="539.999987" y="-82.499998" fill-opacity="1"/></g></g></g></g></g><g transform="matrix(1, 0, 0, 1, 34, 115)"><g clip-path="url(#0c9174a37b)"><g fill="#0081cc" fill-opacity="1"><g transform="translate(9.19245, 158.168849)"><g><path d="M -5.546875 -149.703125 L 261.015625 -149.703125 L 166.96875 9.59375 C 158.019531 -5.613281 149.101562 -20.539062 140.21875 -35.1875 C 131.332031 -49.832031 122.476562 -64.6875 113.65625 -79.75 L 108.96875 -75.28125 L 124.109375 -49.6875 L 88.5 9.59375 Z M -5.546875 -149.703125 "/></g></g></g></g></g><g transform="matrix(1, 0, 0, 1, 53, 115)"><g clip-path="url(#302de6ce44)"><g fill="#004aad" fill-opacity="1"><g transform="translate(9.466403, 158.183028)"><g><path d="M -5.546875 -149.703125 L 261.015625 -149.703125 L 166.96875 9.59375 C 158.019531 -5.613281 149.101562 -20.539062 140.21875 -35.1875 C 131.332031 -49.832031 122.476562 -64.6875 113.65625 -79.75 L 108.96875 -75.28125 L 124.109375 -49.6875 L 88.5 9.59375 Z M -5.546875 -149.703125 "/></g></g></g></g></g><g transform="matrix(1, 0, 0, 1, 72, 115)"><g clip-path="url(#8cf3fe0533)"><g fill="#000000" fill-opacity="1"><g transform="translate(10.409423, 158.183028)"><g><path d="M -5.546875 -149.703125 L 261.015625 -149.703125 L 166.96875 9.59375 C 158.019531 -5.613281 149.101562 -20.539062 140.21875 -35.1875 C 131.332031 -49.832031 122.476562 -64.6875 113.65625 -79.75 L 108.96875 -75.28125 L 124.109375 -49.6875 L 88.5 9.59375 Z M -5.546875 -149.703125 "/></g></g></g></g></g></svg>
